<?xml version="1.0" encoding="utf-8"?>
<!-- Generated by IcoMoon.io -->
<!DOCTYPE svg PUBLIC "-//W3C//DTD SVG 1.1//EN" "http://www.w3.org/Graphics/SVG/1.1/DTD/svg11.dtd">
<svg version="1.1" xmlns="http://www.w3.org/2000/svg" xmlns:xlink="http://www.w3.org/1999/xlink" width="150" height="150" viewBox="0 0 150 150">
<g id="icomoon-ignore">
	<line stroke-width="1" x1="" y1="" x2="" y2="" stroke="#449FDB" opacity=""></line>
</g>
	<path d="M148.632 120.507c-0.001-0.001-0.001-0.001-0.002-0.001l-45.504-45.505 45.504-45.505c0.001-0.001 0.001-0.001 0.002-0.001 0.49-0.49 0.844-1.063 1.071-1.672 0.622-1.666 0.267-3.616-1.073-4.956l-21.496-21.496c-1.34-1.34-3.289-1.694-4.955-1.072-0.609 0.227-1.182 0.581-1.673 1.071 0 0.001-0.001 0.001-0.001 0.001l-45.505 45.506-45.505-45.505c-0.001-0.001-0.001-0.001-0.001-0.001-0.49-0.49-1.063-0.844-1.672-1.071-1.667-0.622-3.616-0.267-4.956 1.072l-21.496 21.496c-1.34 1.34-1.695 3.289-1.073 4.955 0.227 0.609 0.582 1.182 1.071 1.672 0.001 0 0.001 0.001 0.001 0.001l45.505 45.505-45.505 45.506c-0 0.001-0.001 0.001-0.001 0.001-0.49 0.49-0.844 1.063-1.071 1.672-0.622 1.666-0.267 3.616 1.073 4.956l21.496 21.496c1.34 1.34 3.289 1.695 4.956 1.073 0.609-0.227 1.182-0.582 1.672-1.071 0-0.001 0.001-0.001 0.001-0.001l45.505-45.505 45.505 45.505c0.001 0 0.001 0.001 0.002 0.001 0.49 0.49 1.063 0.844 1.672 1.071 1.667 0.622 3.616 0.267 4.955-1.073l21.496-21.496c1.34-1.34 1.695-3.289 1.073-4.956-0.227-0.609-0.582-1.182-1.071-1.672z" fill="#f0f0f0"></path>
</svg>
